<?xml version="1.0" standalone="no"?><!DOCTYPE svg PUBLIC "-//W3C//DTD SVG 1.1//EN" "http://www.w3.org/Graphics/SVG/1.1/DTD/svg11.dtd"><svg t="1533027236671" class="icon" style="" viewBox="0 0 1024 1024" version="1.1" xmlns="http://www.w3.org/2000/svg" p-id="1523" xmlns:xlink="http://www.w3.org/1999/xlink" width="200" height="200"><defs><style type="text/css"></style></defs><path d="M416.3 429.2m-18 0a18 18 0 1 0 36 0 18 18 0 1 0-36 0Z" fill="" p-id="1524"></path><path d="M608.4 429.2m-18 0a18 18 0 1 0 36 0 18 18 0 1 0-36 0Z" fill="" p-id="1525"></path><path d="M770.4 516c0-52.5-15.7-101.2-42.6-142 1.3-0.8 2.4-1.9 3.4-3.1 11.9-14.3 18.4-32.4 18.4-51 0-44.1-35.9-80-80-80-24.2 0-46.8 10.8-62.1 29.6-1.3 1.6-2.3 3.5-2.9 5.5-28.7-11-59.8-17-92.3-17-33 0-64.5 6.2-93.5 17.5-0.6-1.9-1.5-3.7-2.7-5.3-15.3-19.2-38.1-30.2-62.7-30.2-44.1 0-80 35.9-80 80 0 19.2 6.9 37.8 19.5 52.4 1 1.1 2.1 2 3.2 2.8-26.4 40.5-41.8 88.9-41.8 140.9 0 148.7 113.7 258.1 258 258.1 135.7 0 258.1-100.4 258.1-258.2z m-258 242c-41.4 0-89.6-14.1-121.7-33.1-32.2-19-59.6-45.3-79.8-76.6 24.9-24 53.6-43.1 85.3-56.9 29.2-12.7 59.9-20.4 91.5-23.1 4.7 8.8 14 14.8 24.7 14.8s20-6 24.7-14.8c31.7 2.6 62.4 10.4 91.5 23.1 31.7 13.8 60.4 33 85.3 56.9-20.3 31.3-47.7 57.6-79.8 76.6-32.1 18.9-79.1 33.1-121.7 33.1z m157.2-502c35.3 0 64 28.7 64 64 0 15.5-5.5 29.7-14.7 40.8-25.5-34.8-59.5-62.8-99-81.2 11.8-14.4 29.7-23.6 49.7-23.6z m-380.2 64c0-35.3 28.7-64 64-64 20.3 0 38.4 9.5 50.1 24.2-39.4 18.5-73.2 46.8-98.5 81.6-9.7-11.2-15.6-25.8-15.6-41.8z m-19 196c0-32.7 6.4-64.4 19-94.2 12.2-28.8 29.6-54.7 51.9-76.9 22.2-22.2 48.1-39.7 76.9-51.9 29.8-12.6 61.5-19 94.2-19s64.4 6.4 94.2 19c28.8 12.2 54.7 29.6 76.9 51.9 22.2 22.2 39.7 48.1 51.9 76.9 12.6 29.8 19 61.5 19 94.2s-6.4 64.4-19 94.2c-3.6 8.5-7.7 16.8-12.2 24.8-48.7-46-112.4-76.2-182.9-82.5-1.3-14.3-13.3-25.5-27.9-25.5s-26.6 11.2-27.9 25.5c-70.6 6.4-134.2 36.6-182.9 82.5-4.5-8-8.6-16.2-12.2-24.8-12.6-29.8-19-61.5-19-94.2z" fill="" p-id="1526"></path></svg>