<?xml version="1.0" standalone="no"?><!DOCTYPE svg PUBLIC "-//W3C//DTD SVG 1.1//EN" "http://www.w3.org/Graphics/SVG/1.1/DTD/svg11.dtd"><svg t="1533027244482" class="icon" style="" viewBox="0 0 1024 1024" version="1.1" xmlns="http://www.w3.org/2000/svg" p-id="1651" xmlns:xlink="http://www.w3.org/1999/xlink" width="200" height="200"><defs><style type="text/css"></style></defs><path d="M416.3 429.2m-18 0a18 18 0 1 0 36 0 18 18 0 1 0-36 0Z" fill="" p-id="1652"></path><path d="M608.4 429.2m-18 0a18 18 0 1 0 36 0 18 18 0 1 0-36 0Z" fill="" p-id="1653"></path><path d="M843 401.2c-23-38.8-63.1-69.7-102.3-78.7-20.1-4.6-37.2-2.8-49.4 5.3-0.5 0.3-0.9 0.7-1.3 1.1-46.3-44-108.8-70.9-177.6-70.9-69.4 0-132.4 27.4-178.8 72-0.6-0.8-1.3-1.6-2.2-2.2-12.2-8.1-29.3-9.9-49.4-5.3-39.2 9-79.3 39.9-102.3 78.7-80.9 136.8-76.2 225.3-44.9 262.5 11.5 13.7 27.1 20.9 44.2 20.9 7.8 0 15.9-1.5 24-4.6 43.1-16.3 54.2-59.6 59.3-100.7C290.5 691.2 391.8 774 512.4 774c118.7 0 218.7-80.2 248.7-189.3 5.4 39.5 17.4 79.7 58.6 95.4 8.1 3.1 16.2 4.6 24 4.6 17 0 32.6-7.2 44.2-20.9 31.3-37.3 35.9-125.8-44.9-262.6zM254.4 511.8c-2.7 12.5-4.1 26.8-5.6 41.9-2.2 23.3-4.6 47.4-12 67.9-8.1 22.5-20.7 36.3-39.6 43.5-19.5 7.4-37.8 3.1-50.2-11.7-26.5-31.5-30.2-114.3 46.5-244.1 25.3-42.8 65.4-65.2 92.1-71.3 15.5-3.6 28.6-2.5 37 3 0 0 0.1 0 0.1 0.1-41.5 45.1-67.2 104.9-68.3 170.7z m498.1 3.1c0.6 2.9 1.2 5.9 1.7 9.1-1 29.8-7.3 58.8-18.9 86.2-12.2 28.8-29.6 54.7-51.9 76.9-22.2 22.2-48.1 39.7-76.9 51.9-29.8 12.6-61.5 19-94.2 19s-64.4-6.4-94.2-19c-28.8-12.2-54.7-29.6-76.9-51.9-22.2-22.2-39.7-48.1-51.9-76.9-12.6-29.8-19-61.5-19-94.2s6.4-64.4 19-94.2c12.2-28.8 29.6-54.7 51.9-76.9 22.2-22.2 48.1-39.7 76.9-51.9 29.8-12.6 61.5-19 94.2-19s64.4 6.4 94.2 19c28.8 12.2 54.7 29.6 76.9 51.9 22.2 22.2 39.7 48.1 51.9 76.9 11.6 27.4 17.9 56.4 18.9 86.2-1.5 1.9-2.2 4.4-1.7 6.9z m123.2 138.5c-12.4 14.8-30.8 19-50.2 11.7-18.9-7.2-31.5-21-39.6-43.5-7.4-20.5-9.7-44.6-12-67.9-1-10.7-2-21.1-3.5-30.6 0.1-2.4 0.1-4.7 0.1-7.1 0-67.9-26.2-129.6-69-175.6 8.4-4.9 21-5.7 35.7-2.3 26.7 6.1 66.8 28.5 92.1 71.3 76.6 129.7 72.9 212.6 46.4 244z" fill="" p-id="1654"></path></svg>